<svg xmlns="http://www.w3.org/2000/svg" id="svg136" fill="none" version="1.1" viewBox="0 0 128 128"><defs id="defs140"><path id="rect536" d="M36.339 50.983h75.39v61.831h-75.39z"/></defs><style id="style134"></style><ellipse id="path424" cx="63.186" cy="64.814" rx="57.144" ry="57.911" style="fill:green;stroke-width:.9"/><g id="text534" aria-label="P" style="font-size:40px;line-height:1.25;white-space:pre;shape-inside:url(#rect536);display:inline;fill:#000" transform="matrix(3.22384 0 0 2.93958 -92.755 -150.683)"><path id="path684" d="M59.27 67.183q0 1.933-.684 3.593-.664 1.641-1.875 2.852-1.504 1.504-3.555 2.266-2.05.742-5.176.742h-3.867v10.84h-3.867V58.394h7.89q2.618 0 4.434.449 1.817.43 3.223 1.367 1.66 1.113 2.559 2.773.918 1.66.918 4.2zm-4.024.097q0-1.504-.527-2.617-.528-1.113-1.602-1.816-.937-.606-2.148-.86-1.192-.273-3.028-.273h-3.828v11.621h3.262q2.344 0 3.809-.41 1.464-.43 2.382-1.348.918-.937 1.29-1.972.39-1.036.39-2.325z" style="fill:#fff"/></g></svg>